<svg xmlns="http://www.w3.org/2000/svg" viewBox="0 0 50 50" style="height: 55px; width: 55px;" class="wd">
                                    <style type="text/css">
                                    .st0 {
                                        fill: #4F585D;
                                    }

                                    .st1 {
                                        fill: #FFFFFF;
                                    }
                                    </style>
                                    <path class="st0" d="M35.6,46.6H13.4c-0.8,0-1.4-0.6-1.4-1.4v-0.8c0-0.8,0.6-1.4,1.4-1.4h22.2c0.8,0,1.4,0.6,1.4,1.4v0.8&#10;                                C37,45.9,36.4,46.6,35.6,46.6z"/>
                                    <path class="st0" d="M35.6,7.6H13.4c-0.8,0-1.4-0.6-1.4-1.4V5.4C12,4.6,12.6,4,13.4,4h22.2C36.4,4,37,4.6,37,5.4v0.8&#10;                                C37,6.9,36.4,7.6,35.6,7.6z"/>
                                    <rect x="12" y="9.1" class="st0" width="25" height="32.1"/>
                                    <path class="st1" d="M38.3,13c0.5,0.1,0.9,0.1,1.4,0.2c0.5,0.1,0.7,0.4,0.7,0.9c-0.1,0.6-0.1,1.2-0.2,1.8c0.5,0.2,1,0.4,1.5,0.6&#10;                                c0,0,0.2,0,0.2-0.1c0.4-0.4,0.7-0.9,1.1-1.3c0.3-0.4,0.7-0.5,1.1-0.2c1.2,0.8,2.1,1.8,2.9,2.9c0.3,0.5,0.3,0.8-0.1,1.1&#10;                                c-0.5,0.4-0.9,0.8-1.4,1.2c0.2,0.5,0.4,1.1,0.7,1.6c0.4,0,0.8-0.1,1.2-0.1c0.2,0,0.5,0,0.7-0.1c0.4,0,0.7,0.2,0.8,0.6&#10;                                c0.3,1.3,0.3,2.6,0.1,3.9c0,0.2,0,0.3-0.1,0.5c-0.1,0.5-0.4,0.7-0.8,0.6c-0.6-0.1-1.3-0.1-1.9-0.2c-0.2,0.5-0.4,1.1-0.7,1.6&#10;                                c0.4,0.3,0.7,0.6,1.1,0.9c0.1,0,0.1,0.1,0.2,0.1c0.6,0.5,0.6,0.7,0.2,1.4c-0.8,1.1-1.7,2-2.9,2.8c-0.4,0.3-0.8,0.2-1.1-0.2&#10;                                c-0.4-0.5-0.8-0.9-1.2-1.4c-0.5,0.2-1.1,0.4-1.6,0.7c0,0.4,0.1,0.8,0.1,1.2c0,0.2,0,0.5,0.1,0.7c0,0.4-0.2,0.7-0.6,0.8&#10;                                c-1.5,0.3-2.9,0.3-4.4,0c-0.4-0.1-0.6-0.4-0.6-0.8c0.1-0.6,0.1-1.3,0.2-1.9c-0.5-0.2-1.1-0.4-1.6-0.7c-0.4,0.5-0.8,0.9-1.2,1.4&#10;                                c-0.4,0.4-0.7,0.5-1.1,0.1c-1.2-0.8-2.2-1.8-3-3c-0.3-0.4-0.2-0.7,0.1-1c0.5-0.4,1-0.8,1.5-1.2c-0.2-0.5-0.4-1.1-0.7-1.6&#10;                                c-0.6,0.1-1.2,0.1-1.9,0.2c-0.5,0-0.8-0.2-0.8-0.6c-0.3-1.4-0.3-2.9,0-4.3c0.1-0.5,0.4-0.7,0.9-0.6c0.6,0.1,1.1,0.1,1.7,0.2&#10;                                c0.1,0,0.2-0.1,0.2-0.1c0.2-0.5,0.4-1,0.6-1.5c-0.4-0.4-0.9-0.8-1.3-1.1c-0.5-0.4-0.5-0.7-0.2-1.2c0.8-1.1,1.7-2,2.8-2.8&#10;                                c0.6-0.4,0.8-0.4,1.3,0.1c0.3,0.4,0.7,0.8,1,1.2c0.1,0.1,0.2,0.2,0.3,0.1c0.5-0.2,0.9-0.4,1.4-0.6c-0.1-0.6-0.1-1.2-0.2-1.9&#10;                                c0-0.5,0.2-0.8,0.6-0.8c0.5-0.1,0.9-0.1,1.4-0.2C37.3,13,37.8,13,38.3,13z M47.6,25.9c0.1-0.9,0.1-1.8,0-2.8c-0.1,0-0.3,0-0.4,0&#10;                                c-0.5,0-1,0.1-1.5,0.1c-0.4,0-0.7-0.2-0.8-0.6c-0.2-0.7-0.4-1.4-0.8-2c-0.3-0.6-0.3-0.8,0.2-1.2c0.4-0.4,0.9-0.7,1.3-1.1&#10;                                c-0.6-0.7-1.2-1.4-1.9-1.9c-0.4,0.5-0.8,1-1.2,1.4c-0.3,0.3-0.6,0.4-0.9,0.2c-0.7-0.4-1.5-0.8-2.3-0.9c-0.3-0.1-0.5-0.3-0.5-0.7&#10;                                c0-0.2,0-0.4,0-0.6c0-0.5,0.1-0.9,0.1-1.4c-0.9-0.1-1.8-0.1-2.8,0c0,0.1,0,0.3,0,0.4c0,0.5,0.1,1,0.1,1.5c0,0.5-0.1,0.7-0.6,0.8&#10;                                c-0.7,0.2-1.4,0.4-2,0.8c-0.6,0.3-0.8,0.3-1.2-0.2c-0.4-0.4-0.7-0.9-1.1-1.3c-0.7,0.6-1.4,1.2-1.9,1.9c0.5,0.4,0.9,0.8,1.4,1.2&#10;                                c0.4,0.3,0.4,0.6,0.2,1c-0.4,0.7-0.7,1.4-0.9,2.1c-0.1,0.4-0.3,0.6-0.8,0.6c-0.2,0-0.3,0-0.5,0c-0.5,0-1-0.1-1.5-0.1&#10;                                c-0.1,0.9-0.1,1.9,0,2.8c0.1,0,0.3,0,0.4,0c0.5,0,1-0.1,1.6-0.1c0.4,0,0.7,0.2,0.7,0.6c0.2,0.8,0.5,1.5,0.9,2.2&#10;                                c0.2,0.4,0.2,0.7-0.2,1c-0.4,0.4-0.8,0.7-1.3,1.1c-0.1,0-0.1,0.1-0.2,0.1c0.7,0.7,1.3,1.3,2,2c0.5-0.5,0.9-1,1.3-1.5&#10;                                c0.3-0.4,0.6-0.4,1-0.2c0.7,0.4,1.4,0.7,2.1,0.9c0.4,0.1,0.6,0.3,0.6,0.8c0,0.5-0.1,1.1-0.1,1.6c0,0.1,0,0.2,0,0.4&#10;                                c0.9,0.1,1.8,0.1,2.7,0c0-0.1,0-0.2,0-0.4c0-0.5-0.1-1.1-0.1-1.6c0-0.4,0.2-0.6,0.5-0.7c0.8-0.2,1.6-0.5,2.3-0.9&#10;                                c0.3-0.2,0.6-0.1,0.9,0.1c0.2,0.2,0.3,0.4,0.5,0.6c0.3,0.3,0.5,0.6,0.8,0.9c0.7-0.6,1.4-1.2,1.9-1.9c-0.5-0.4-1-0.8-1.4-1.2&#10;                                c-0.4-0.3-0.4-0.6-0.2-1c0.4-0.7,0.7-1.4,0.9-2.2c0.1-0.4,0.3-0.6,0.7-0.5c0.2,0,0.3,0,0.5,0C46.6,25.8,47.1,25.9,47.6,25.9z"/>
                                    <path class="st0" d="M48.9,22.3c-0.1-0.5-0.4-0.7-0.9-0.6c-0.6,0.1-1.1,0.1-1.7,0.2c-0.1,0-0.2-0.1-0.2-0.1c-0.2-0.5-0.4-1-0.6-1.5&#10;                                c0.4-0.4,0.9-0.8,1.3-1.1c0.5-0.4,0.5-0.7,0.2-1.2c-0.8-1.1-1.7-2-2.8-2.8c-0.6-0.4-0.8-0.4-1.3,0.1c-0.3,0.4-0.7,0.8-1,1.2&#10;                                c-0.1,0.1-0.2,0.2-0.3,0.1c-0.5-0.2-0.9-0.4-1.4-0.6c0.1-0.6,0.1-1.2,0.2-1.9c0-0.5-0.2-0.8-0.6-0.8c-0.5-0.1-0.9-0.1-1.4-0.2h-1.2&#10;                                c0,0.5,0,0.9-0.1,1.4c0.6,0,1.3,0,1.9,0c0,0.1,0,0.3,0,0.4c0,0.5-0.1,1-0.1,1.5c0,0.5,0.1,0.7,0.6,0.8c0.7,0.2,1.4,0.4,2,0.8&#10;                                c0.6,0.3,0.8,0.3,1.2-0.2c0.4-0.4,0.7-0.9,1.1-1.3c0.7,0.6,1.4,1.2,1.9,1.9c-0.5,0.4-0.9,0.8-1.4,1.2c-0.4,0.3-0.4,0.6-0.2,1&#10;                                c0.4,0.7,0.7,1.4,0.9,2.1c0.1,0.4,0.3,0.6,0.8,0.6c0.2,0,0.3,0,0.5,0c0.5,0,1-0.1,1.5-0.1c0.1,0.9,0.1,1.9,0,2.8c-0.1,0-0.3,0-0.4,0&#10;                                c-0.5,0-1-0.1-1.6-0.1c-0.4,0-0.7,0.2-0.7,0.6c-0.2,0.8-0.5,1.5-0.9,2.2c-0.2,0.4-0.2,0.7,0.2,1c0.4,0.4,0.8,0.7,1.3,1.1&#10;                                c0.1,0,0.1,0.1,0.2,0.1c-0.7,0.7-1.3,1.3-2,2c-0.5-0.5-0.9-1-1.3-1.5c-0.3-0.4-0.6-0.4-1-0.2c-0.7,0.4-1.4,0.7-2.1,0.9&#10;                                c-0.4,0.1-0.6,0.3-0.6,0.8c0,0.5,0.1,1.1,0.1,1.6c0,0.1,0,0.2,0,0.4c-0.6,0.1-1.3,0.1-1.9,0c0.1,0.5,0,0.9,0,1.4&#10;                                c0.9,0,1.8,0,2.8-0.2c0.4-0.1,0.6-0.4,0.6-0.8c-0.1-0.6-0.1-1.3-0.2-1.9c0.5-0.2,1.1-0.4,1.6-0.7c0.4,0.5,0.8,0.9,1.2,1.4&#10;                                c0.4,0.4,0.7,0.5,1.1,0.1c1.2-0.8,2.2-1.8,3-3c0.3-0.4,0.2-0.7-0.1-1c-0.5-0.4-1-0.8-1.5-1.2c0.2-0.5,0.4-1.1,0.7-1.6&#10;                                c0.6,0.1,1.2,0.1,1.9,0.2c0.5,0,0.8-0.2,0.8-0.6C49.1,25.2,49.1,23.8,48.9,22.3z"/>
                                    <path class="st1" d="M33.2,24.5c-0.1-2.3,1.9-4.4,4.4-4.3c2.4,0,4.3,2,4.3,4.4c0,2.4-2,4.3-4.4,4.3C35.2,28.9,33.1,26.9,33.2,24.5z&#10;                                M37.6,27.6c1.7,0,3-1.3,3-3.1c0-1.7-1.4-3-3.1-3c-1.7,0-3,1.4-3,3C34.6,26.3,35.9,27.6,37.6,27.6z"/>
                                    <path class="st1" d="M37.6,27.6c-1.7,0-3-1.3-3-3c0-1.7,1.3-3,3-3c1.7,0,3,1.3,3.1,3C40.6,26.2,39.3,27.5,37.6,27.6z"/>
                                    <path class="st1" d="M26,46h-3c-0.5,0-1-0.5-1-1l0,0c0-0.5,0.4-1,1-1h3c0.5,0,1,0.5,1,1l0,0C27,45.5,26.6,46,26,46z"/>
                                </svg>