<svg xmlns="http://www.w3.org/2000/svg" viewBox="0 0 50 50" style="height: 55px; width: 55px;" class="wd">
                                    <style type="text/css">
                                    .st0 {
                                        fill: #000;
                                    }

                                    .st1 {
                                        fill: #FFFFFF;
                                    }
                                    </style>
                                    <path class="st0" d="M2.5,5C3,5.1,3.5,5.2,4,5.3c1.9,0.3,3.7,0.6,5.6,1c0.5,0.1,0.9,0.4,1.1,0.9c0.8,2.1,1.6,4.1,2.4,6.2 c0.2,0.6,0.5,1.2,0.7,1.8c0.1,0.2,0.2,0.2,0.3,0.2c1.9,0,3.7,0.1,5.6,0.1c3.1,0.1,6.2,0.2,9.3,0.2c2.3,0.1,4.6,0.1,6.8,0.2 c2.5,0.1,5,0.1,7.5,0.2c0.7,0,1.4,0.1,2.1,0.1c0.8,0,1.4,0.4,1.5,1.1c0,0,0,0.1,0.1,0.1c0,0.1,0,0.2,0,0.2c-0.1,0.4-0.1,0.7-0.2,1.1 c-0.3,2.1-0.5,4.1-0.8,6.2c-0.3,2.2-0.5,4.4-0.8,6.6c0,0.2-0.1,0.4-0.1,0.6c-0.1,0.7-0.5,1.1-1.2,1.1c-1.3,0.1-2.7,0.2-4,0.3 c-2,0.2-4.1,0.3-6.1,0.5c-1.1,0.1-2.2,0.2-3.2,0.2c-1.7,0.1-3.3,0.3-5,0.4c-1.3,0.1-2.7,0.2-4,0.3c-0.2,0-0.4,0.1-0.5,0.2 c-1.5,1.1-2.9,2.3-4.4,3.4c-0.4,0.3-0.7,0.6-0.8,1.1c-0.3,1,0.1,1.6,1.1,1.7c1,0,1.9,0,2.9,0c7.7,0,15.4,0,23.1,0.1 c0.6,0,1.1,0,1.7,0c0.7,0,1.3,0.5,1.3,1.2c0,0.7-0.6,1.3-1.3,1.3c-0.5,0-1.1,0-1.6,0c-0.1,0-0.2,0-0.3,0c0,0,0,0,0,0.1 c0.1,0.1,0.2,0.2,0.3,0.3c0.8,0.7,1,1.6,0.7,2.6c-0.3,1-1,1.6-2,1.9c-0.1,0-0.2,0.1-0.3,0.1c-0.1,0-0.2,0-0.2,0 c-0.4-0.1-0.9-0.2-1.2-0.4c-1.5-0.9-1.7-3.1-0.3-4.2c0.1-0.1,0.1-0.1,0.2-0.2c0,0,0-0.1,0-0.1c-7.4,0-14.8,0-22.3,0 c0.1,0.1,0.2,0.1,0.2,0.2c0.9,0.7,1.3,1.6,1,2.7c-0.3,1.1-1,1.7-2.1,2c-0.1,0-0.2,0.1-0.3,0.1c-0.1,0-0.2,0-0.3,0 c-0.1,0-0.3-0.1-0.4-0.1c-1.1-0.3-2-1.2-2-2.3c-0.1-1.2,0.6-2.2,1.8-2.6c0.1,0,0.2-0.1,0.3-0.1c-0.2-0.1-0.3-0.1-0.4-0.2 c-1.4-0.7-2.6-2.2-2.2-4.1c0.3-1,0.8-1.9,1.6-2.6c1.1-0.9,2.1-1.7,3.2-2.5c0.2-0.1,0.2-0.3,0.1-0.5c-1.1-2.7-2.1-5.3-3.1-8 c-1.2-3.1-2.4-6.2-3.6-9.3c-1-2.6-2-5.1-3-7.7c0-0.1-0.2-0.2-0.3-0.3C7,8.3,5.7,8.1,4.4,7.9C3.6,7.8,2.9,7.7,2.1,7.5 c-0.6-0.1-1-0.6-1-1.2c0-0.5,0.4-1,0.9-1.2C2.1,5.1,2.2,5,2.3,5C2.4,5,2.4,5,2.5,5z M20,21.8c0,0.2,0.1,0.3,0.3,0.3 c1.3,0,2.6,0,3.9,0c0.2,0,0.3-0.1,0.3-0.3c0-1.3,0-2.6,0-3.9c0-0.3-0.1-0.4-0.4-0.4c-1.2,0-2.5-0.1-3.7-0.1c-0.4,0-0.4,0-0.4,0.4 c0,0.7,0,1.3,0,2c0,0,0,0,0,0C20,20.5,20,21.2,20,21.8z M29.5,22.1c0.2,0,0.3-0.1,0.3-0.3c0-1.3,0-2.6,0-3.9c0-0.2-0.1-0.3-0.3-0.3 c-1.3,0-2.6,0-3.9-0.1c-0.2,0-0.3,0.1-0.3,0.3c0,1.3,0,2.6,0,3.9c0,0.2,0.1,0.3,0.3,0.3c0.7,0,1.3,0,2,0 C28.2,22.1,28.9,22.1,29.5,22.1z M20.3,28C20,28,20,28,20,28.3c0,0.7,0,1.4,0,2c0,0.1,0,0.3,0.1,0.4c0.2,0.6,0.5,1.2,0.7,1.8 c0,0.1,0.2,0.2,0.2,0.2c1-0.1,2-0.2,3.1-0.3c0.4,0,0.4,0,0.4-0.5c0-1.2,0-2.4,0-3.5c0-0.4,0-0.4-0.4-0.4c-0.6,0-1.3,0-1.9,0 c0,0,0,0,0,0C21.6,28,20.9,28,20.3,28z M34.8,22.1c0.2,0,0.3-0.1,0.3-0.3c0-1.3,0-2.5,0-3.8c0-0.2-0.1-0.2-0.2-0.2c-0.3,0-0.6,0-1,0&#10;                                c-1,0-2,0-3-0.1c-0.3,0-0.4,0.1-0.3,0.3c0,1.3,0,2.5,0,3.8c0,0.2,0.1,0.3,0.3,0.3c0.6,0,1.3,0,1.9,0c0,0,0,0,0,0&#10;                                C33.5,22.1,34.2,22.1,34.8,22.1z M36.3,23c-0.2,0-0.3,0.1-0.3,0.3c0,1.2,0,2.4,0,3.6c0,0.2,0.1,0.3,0.3,0.3c1.3,0,2.6,0,3.9,0&#10;                                c0.2,0,0.3-0.1,0.3-0.3c0-1.2,0-2.4,0-3.7c0-0.2-0.1-0.3-0.3-0.3c-0.7,0-1.3,0-2,0C37.5,23,36.9,23,36.3,23z M29.5,27.2&#10;                                c0.2,0,0.3-0.1,0.3-0.3c0-1.2,0-2.4,0-3.6c0-0.2-0.1-0.3-0.3-0.3c-1.3,0-2.6,0-3.9,0c-0.2,0-0.3,0.1-0.3,0.3c0,1.2,0,2.4,0,3.6&#10;                                c0,0.2,0.1,0.3,0.3,0.3c0.7,0,1.3,0,2,0C28.2,27.2,28.9,27.2,29.5,27.2z M20.3,23C20.1,23,20,23,20,23.3c0,1.2,0,2.4,0,3.6&#10;                                c0,0.2,0.1,0.3,0.3,0.3c1.3,0,2.6,0,3.9,0c0.2,0,0.3-0.1,0.3-0.3c0-1.2,0-2.4,0-3.6c0-0.2-0.1-0.3-0.3-0.3c-0.7,0-1.3,0-2,0&#10;                                c0,0,0,0,0,0C21.6,23,20.9,23,20.3,23z M40.1,22.1c0.2,0,0.3-0.1,0.3-0.3c0-1.2,0-2.4,0-3.6c0-0.2-0.1-0.2-0.3-0.2&#10;                                c-1.3,0-2.6-0.1-3.8-0.1c-0.4,0-0.4,0-0.4,0.4c0,1.2,0,2.3,0,3.5c0,0.3,0.1,0.4,0.4,0.4c0.6,0,1.2,0,1.9,0&#10;                                C38.8,22.1,39.5,22.1,40.1,22.1z M30.9,23c-0.2,0-0.3,0.1-0.3,0.3c0,1.2,0,2.4,0,3.6c0,0.2,0.1,0.3,0.3,0.3c1.3,0,2.6,0,3.9,0&#10;                                c0.2,0,0.3-0.1,0.3-0.3c0-1.2,0-2.5,0-3.7c0-0.2-0.1-0.2-0.3-0.2c-0.7,0-1.3,0-2,0c0,0,0,0,0,0C32.2,23,31.6,23,30.9,23z M25.6,28&#10;                                c-0.2,0-0.3,0.1-0.3,0.2c0,1.3,0,2.5,0,3.8c0,0.2,0.1,0.3,0.3,0.2c1.3-0.1,2.6-0.2,3.9-0.3c0.2,0,0.3-0.1,0.3-0.3c0-1.1,0-2.2,0-3.4&#10;                                c0-0.2-0.1-0.3-0.3-0.3c-0.7,0-1.3,0-2,0C26.9,28,26.2,28,25.6,28z M34.9,28c-1.3,0-2.6,0-3.9,0c-0.2,0-0.3,0.1-0.3,0.3&#10;                                c0,1.1,0,2.2,0,3.3c0,0.2,0.1,0.3,0.3,0.3c1.3-0.1,2.6-0.2,4-0.3c0.2,0,0.2-0.1,0.2-0.3c0-1.1,0-2.2,0-3.3C35,28,34.9,28,34.9,28z&#10;                                M15,17.8c0.5,1.3,1,2.7,1.6,4c0.1,0.2,0.2,0.3,0.4,0.3c0.6,0,1.3,0,1.9,0c0.2,0,0.3-0.1,0.3-0.3c0-1.4,0-2.7,0-4.1&#10;                                c0-0.2,0-0.3-0.2-0.3c-1.3,0-2.6-0.1-3.8-0.1c-0.1,0-0.1,0-0.2,0C14.9,17.6,15,17.7,15,17.8z M37.1,28c-0.3,0-0.6,0-1,0&#10;                                c-0.2,0-0.2,0.1-0.2,0.2c0,1,0,2,0,3c0,0.2,0.1,0.2,0.3,0.2c0.9-0.1,1.7-0.1,2.6-0.2c0.5,0,0.9-0.1,1.4-0.1c0.2,0,0.2-0.1,0.2-0.3&#10;                                c0-0.9,0-1.9,0-2.9C39.3,28,38.2,28,37.1,28z M41.3,21.9c0,0.2,0.1,0.3,0.3,0.3c0.9,0,1.8,0,2.7,0c0.2,0,0.3-0.1,0.3-0.3&#10;                                c0.1-1.1,0.3-2.3,0.4-3.4c0-0.2,0-0.3-0.3-0.3c-1,0-2.1-0.1-3.1-0.1c-0.4,0-0.4,0-0.4,0.4c0,0.6,0,1.1,0,1.7c0,0,0,0,0,0&#10;                                C41.3,20.7,41.3,21.3,41.3,21.9z M41.3,26.9c0,0.2,0.1,0.3,0.3,0.3c0.7,0,1.4,0,2.2,0c0.2,0,0.3-0.1,0.3-0.3&#10;                                c0.1-1.2,0.3-2.4,0.4-3.6c0-0.2,0-0.3-0.3-0.3c-0.9,0-1.8,0-2.6,0c-0.2,0-0.3,0.1-0.3,0.3c0,0.6,0,1.2,0,1.8&#10;                                C41.3,25.7,41.3,26.3,41.3,26.9z M41.3,30.8c0,0.2,0.1,0.3,0.3,0.2c0.6-0.1,1.2-0.1,1.7-0.1c0.2,0,0.3-0.1,0.3-0.3&#10;                                c0.1-0.8,0.2-1.6,0.3-2.4c0-0.1-0.1-0.2-0.2-0.2c-0.7,0-1.5,0-2.2,0c-0.2,0-0.2,0.1-0.2,0.2c0,0.4,0,0.9,0,1.3c0,0,0,0,0,0&#10;                                C41.3,29.9,41.3,30.4,41.3,30.8z M41.5,47.9c0.9,0,1.6-0.7,1.6-1.6c0-0.9-0.7-1.6-1.6-1.6c-0.9,0-1.6,0.7-1.6,1.6&#10;                                C39.9,47.2,40.6,47.9,41.5,47.9z M16.5,44.7c-0.9,0-1.6,0.8-1.6,1.6c0,0.9,0.7,1.6,1.6,1.6c0.9,0,1.6-0.7,1.6-1.6&#10;                                C18.1,45.4,17.3,44.7,16.5,44.7z M17.1,23.3c0.5,1.2,0.9,2.4,1.4,3.6c0,0.1,0.2,0.2,0.3,0.3c0.2,0.1,0.4,0,0.4-0.3&#10;                                c0-1.2,0-2.4,0-3.6c0-0.2-0.1-0.3-0.3-0.3c-0.5,0-1,0-1.5,0c-0.1,0-0.2,0-0.3,0C17.1,23.1,17.1,23.2,17.1,23.3z"/>
                                    <path class="st1" d="M41.5,44.7c0.9,0,1.6,0.7,1.6,1.6c0,0.8-0.7,1.6-1.6,1.6c-0.9,0-1.6-0.7-1.6-1.6C39.9,45.4,40.6,44.7,41.5,44.7&#10;                                z M42.3,46.3c0-0.4-0.4-0.8-0.8-0.8c-0.4,0-0.8,0.3-0.8,0.8c0,0.4,0.3,0.8,0.8,0.8C41.9,47.1,42.3,46.8,42.3,46.3z"/>
                                    <path class="st1" d="M16.5,47.9c-0.9,0-1.6-0.7-1.6-1.6c0-0.9,0.7-1.6,1.6-1.6c0.9,0,1.6,0.7,1.6,1.6C18.1,47.2,17.4,47.9,16.5,47.9&#10;                                z M16.5,47.1c0.5,0,0.8-0.3,0.8-0.8c0-0.5-0.3-0.8-0.8-0.8c-0.4,0-0.8,0.3-0.8,0.8C15.7,46.8,16,47.1,16.5,47.1z"/>
                                    <path class="st0" d="M41.5,47.1c0.4,0,0.8-0.4,0.8-0.8c0-0.4-0.4-0.8-0.8-0.8c-0.4,0-0.8,0.3-0.8,0.8C40.7,46.8,41,47.1,41.5,47.1z"/>
                                    <path class="st0" d="M15.7,46.3c0,0.5,0.3,0.8,0.8,0.8c0.5,0,0.8-0.3,0.8-0.8c0-0.5-0.3-0.8-0.8-0.8C16,45.6,15.7,45.9,15.7,46.3z"/>
                                    <path class="st1" d="M43.1,2.2c1.6,0.4,2.8,1.1,4,2.2c-0.8,0.4-1.4,0.8-2.1,1.2C44.3,4.5,43.7,3.4,43.1,2.2z"/>
                                </svg>