<svg xmlns="http://www.w3.org/2000/svg" style="height: 55px; width: 55px;" class="wd" viewBox="0 0 50 50">
                                    <style type="text/css">
                                    .tt {
                                        fill: #0073a0;
                                    }
                                    </style>
                                    <g>
                                        <path class="st0" d="M26.7,4.2c2.1,1.3,2.6,3.7,0.7,4.7c-1.9,1-1,2.5-1.2,3.8c-0.1,0.4,0.3,0.3,0.5,0.4c1.4,0.4,2.7,1.1,3.7,2.1&#10;                                        c0.3,0.3,0.6,0.4,1,0.3c0.2-0.1,0.5-0.1,0.7-0.1c1.1,0.4,1.9-0.1,2.6-0.9c0.5-0.6,1-1,0.6-1.9c-0.3-0.8,0.4-1.9,1.2-2.3&#10;                                        c0.8-0.4,2-0.2,2.6,0.4c0.7,0.7,0.9,1.8,0.4,2.7c-0.5,0.9-1.5,1.5-2.4,1.1c-1.3-0.6-1.7,0.2-2.4,0.9c-0.2,0.2-0.4,0.3-0.6,0.6&#10;                                        c1.6,0.8,2.7,2,3,3.8c0.1,0.5,0.4,0.5,0.7,0.5c1.7,0.6,3,1.7,3.7,3.3c0.4,0.9,1.1,0.4,1.7,0.5c0.7,0.1,0.4-0.5,0.5-0.8&#10;                                        c0.3-1.1,1-1.9,2.2-2.2c1.2-0.2,2.2,0.2,2.9,1.2c0.1,0.2,0.1,0.4,0.4,0.4c0,0.6,0,1.3,0,1.9c-0.5,0.7-1,1.4-1.9,1.7&#10;                                        c-1.3,0.3-2.5,0-3.2-1.2c-0.6-1-1.4-0.5-2-0.5c-0.4,0-0.2,0.4-0.1,0.7c0.4,3.4-1.5,5.4-3.5,6.3c-1,0.5-2.1,0.5-3.3,0.5&#10;                                        c0.8,0.8,1.2,1.6,2.5,1.1c0.8-0.3,1.9,0.5,2.3,1.3c0.4,1,0.2,2-0.6,2.7c-0.8,0.7-1.8,0.7-2.7,0.1c-0.8-0.5-1.1-1.5-0.9-2.5&#10;                                        c0.1-0.4,0.8-0.8,0.2-1.2c-0.7-0.6-1-1.7-2.3-1.6c-2.2,0.1-4.3,0-6.5,0c-0.6,0-0.9,0.1-0.8,0.8c0.1,1.2,0,2.3,0,3.5&#10;                                        c0,0.5,0.1,0.7,0.6,0.9c1.4,0.4,2,1.7,1.8,3.2c-0.2,1.2-1.2,2-2.5,2c-1.5,0-2.5-0.7-2.8-2c-0.3-1.5,0.3-2.7,1.7-3.2&#10;                                        c0.5-0.2,0.6-0.3,0.6-0.8c0-1.2,0-2.5,0-3.7c0-0.6-0.2-0.7-0.7-0.7c-2.1,0-4.1,0-6.2,0c-0.5,0-0.8,0.2-1.1,0.5&#10;                                        c-1.2,1.2-2.4,2.4-3.6,3.6c-0.5,0.5-0.9,0.9-0.6,1.8c0.3,1.1-0.3,2-1.3,2.4c-0.9,0.4-2,0.1-2.6-0.7c-0.6-0.8-0.6-1.9-0.1-2.7&#10;                                        c0.6-0.8,1.8-1.2,2.8-0.7c0.6,0.3,0.8,0.2,1.2-0.2c1.2-1.2,2.5-2.5,3.8-3.8c-2.7-0.4-4.6-1.7-5.6-4.1c-0.4-0.8-0.6-1.7-0.5-2.7&#10;                                        c0.1-0.7-0.2-0.9-0.8-0.8c-0.6,0-1.3,0-1.9,0c-1.1-0.1-1.9,0-2.6,1.1c-0.6,1-2.2,1.1-3.2,0.5c-1.1-0.6-1.6-1.9-1.3-3.2&#10;                                        c0.3-1.1,1.4-1.9,2.6-2c1.3,0,2.4,0.7,2.6,2c0.2,1,0.7,1.2,1.5,1.1c0.2,0,0.4,0,0.6,0c1.6,0.2,2.9,0,3.6-1.9&#10;                                        c0.6-1.6,2.1-2.5,3.8-2.9c0.8-0.2,1.1-0.6,1.5-1.3c1.1-1.6,0.3-2.5-0.8-3.5c-1.1-1-2.2-2.1-3.2-3.2c-0.4-0.4-0.6-0.6-1.2-0.3&#10;                                        c-1,0.5-2.1,0.3-2.8-0.5c-0.7-0.8-0.7-2-0.1-2.8c0.7-0.9,1.7-1.1,2.7-0.7c1,0.4,1.5,1.4,1.3,2.5c-0.2,0.7,0.1,1,0.5,1.4&#10;                                        c1.5,1.4,2.9,2.9,4.3,4.3c0.3,0.3,0.5,0.5,1,0.1c1.5-1.6,3.5-2.3,5.7-2.3c0.7,0,0.9-0.2,0.8-0.8c0-0.3,0-0.6,0-0.9&#10;                                        c0.1-0.9-0.1-1.4-1.1-1.8c-1.9-0.7-2-3.4-0.4-4.6c0.2-0.2,0.4-0.3,0.7-0.5C25.5,4.2,26.1,4.2,26.7,4.2z"/>
                                        <path class="st1" d="M26.8,30.5c-3.2,0-6.4,0.1-9.6,0c-2-0.1-3.4-1.1-4.2-2.9c-0.8-1.7-0.6-3.4,0.4-5c1-1.5,2.5-2.1,4.1-2.3&#10;                                        c0.7-0.1,0.8-0.5,0.9-0.9c0.6-2.7,2.3-4.3,4.9-4.9c2.3-0.5,4.4,0.1,6.1,1.9c0.6,0.7,1.2,0.8,2.1,0.6c2-0.3,4,0.9,4.4,3.4&#10;                                        c0.1,0.7,0.3,0.9,1,1c2.4,0.5,4,2.5,3.9,4.8c-0.2,2.7-2.4,4.5-4.6,4.4C33.1,30.5,29.9,30.5,26.8,30.5C26.8,30.5,26.8,30.5,26.8,30.5&#10;                                        z"/>
                                        <path class="st2" d="M25.8,5.2c0.9,0,1.7,0.7,1.7,1.6c0,0.9-0.7,1.7-1.7,1.7c-0.9,0-1.6-0.7-1.6-1.6C24.2,6,24.9,5.3,25.8,5.2z"/>
                                        <path class="st3" d="M48.2,23.7c0,0.9-0.8,1.6-1.7,1.6c-0.9,0-1.7-0.8-1.6-1.7c0.1-0.8,0.8-1.5,1.7-1.5&#10;                                        C47.5,22.1,48.2,22.8,48.2,23.7z"/>
                                        <path class="st2" d="M26,41.3c-1,0-1.6-0.7-1.6-1.7c0-0.9,0.7-1.5,1.6-1.5c1,0,1.6,0.6,1.6,1.6C27.6,40.7,27,41.3,26,41.3z"/>
                                        <path class="st2" d="M5.6,23.7c0,0.9-0.8,1.7-1.7,1.7c-0.9,0-1.6-0.8-1.6-1.7c0-0.9,0.7-1.6,1.6-1.6C4.9,22.1,5.6,22.8,5.6,23.7z"/>
                                    </g>
                                    
                            </svg>